<svg width="304" height="322" viewBox="0 0 304 322" fill="none" xmlns="http://www.w3.org/2000/svg">
<path d="M152.001 0C159.733 0 166.001 6.26801 166.001 14V308C166.001 315.732 159.733 322 152.001 322C144.27 322 138.001 315.732 138.001 308V14C138.001 6.26815 144.27 0.00022265 152.001 0ZM94.2084 63.9404C99.6537 58.4515 108.518 58.4163 114.007 63.8613C119.496 69.3068 119.531 78.1712 114.085 83.6602L31.1762 167.234L114.085 250.81C119.531 256.299 119.496 265.163 114.007 270.608C108.518 276.054 99.6539 276.018 94.2084 270.529L4.05996 179.659C0.69905 176.271 -0.573129 171.596 0.235738 167.234C-0.572742 162.872 0.69914 158.198 4.05996 154.811L94.2084 63.9404ZM189.94 63.8613C195.429 58.4161 204.293 58.4518 209.739 63.9404L299.887 154.811C303.248 158.199 304.52 162.872 303.711 167.234C304.52 171.597 303.248 176.271 299.887 179.659L209.739 270.529C204.293 276.018 195.429 276.054 189.94 270.608C184.451 265.163 184.416 256.299 189.862 250.81L272.771 167.234L189.862 83.6602C184.417 78.1711 184.451 69.3067 189.94 63.8613ZM200 128C207.732 128 214 134.268 214 142V192C214 199.732 207.732 206 200 206C192.269 206 186 199.732 186 192V142C186 134.268 192.269 128 200 128Z" fill="url(#paint0_linear_1453_175)"/>
<defs>
<linearGradient id="paint0_linear_1453_175" x1="151.974" y1="0" x2="151.974" y2="322" gradientUnits="userSpaceOnUse">
<stop offset="0.264441" stop-color="#9C64BF"/>
<stop offset="0.48079" stop-color="#E0C174"/>
<stop offset="0.750024" stop-color="#FB7035"/>
</linearGradient>
</defs>
</svg>
