<svg width="240" height="45" viewBox="0 0 240 45" fill="none" xmlns="http://www.w3.org/2000/svg">
<path d="M0.68 35V32.504H4.952V12.92H1.064V10.424H9.272V18.68L9.8 18.584V32.504H15.896V35H0.68ZM8.216 20.072C8.248 17.672 8.648 15.72 9.416 14.216C10.216 12.68 11.288 11.56 12.632 10.856C13.976 10.12 15.512 9.752 17.24 9.752C19.096 9.72 20.584 10.168 21.704 11.096C22.824 11.992 23.384 13.24 23.384 14.84C23.384 15.832 23.096 16.648 22.52 17.288C21.944 17.928 21.176 18.248 20.216 18.248C19.384 18.248 18.712 18.024 18.2 17.576C17.72 17.096 17.48 16.504 17.48 15.8C17.48 14.936 17.784 14.28 18.392 13.832C19.032 13.384 19.944 13.192 21.128 13.256L20.744 14.888C20.68 13.96 20.28 13.256 19.544 12.776C18.808 12.264 17.832 12.008 16.616 12.008C15.368 12.008 14.216 12.312 13.16 12.92C12.136 13.528 11.32 14.44 10.712 15.656C10.104 16.84 9.8 18.312 9.8 20.072H8.216ZM39.3264 35.528C36.8944 35.528 34.7504 35.032 32.8944 34.04C31.0704 33.048 29.6464 31.592 28.6224 29.672C27.5984 27.752 27.0864 25.432 27.0864 22.712C27.0864 19.96 27.5984 17.624 28.6224 15.704C29.6464 13.784 31.0704 12.328 32.8944 11.336C34.7184 10.344 36.8304 9.848 39.2304 9.848L39.3744 12.536C37.8384 12.536 36.5104 12.904 35.3904 13.64C34.2704 14.344 33.4064 15.432 32.7984 16.904C32.1904 18.344 31.8864 20.168 31.8864 22.376C31.8864 25.32 32.6224 27.656 34.0944 29.384C35.5984 31.08 37.6144 31.928 40.1424 31.928C41.7424 31.928 43.0384 31.656 44.0304 31.112C45.0544 30.536 45.8384 29.848 46.3824 29.048C46.9584 28.216 47.3584 27.4 47.5824 26.6H50.5584C50.4624 27.624 50.1584 28.68 49.6464 29.768C49.1664 30.824 48.4624 31.784 47.5344 32.648C46.6384 33.512 45.5184 34.216 44.1744 34.76C42.8304 35.272 41.2144 35.528 39.3264 35.528ZM29.4384 22.472V19.88H46.1424L50.8944 21.224V22.472H29.4384ZM46.1424 19.88C46.1104 18.536 45.8224 17.304 45.2784 16.184C44.7664 15.032 44.0144 14.136 43.0224 13.496C42.0624 12.856 40.8464 12.536 39.3744 12.536L39.2304 9.848C41.7584 9.848 43.8864 10.328 45.6144 11.288C47.3744 12.248 48.6864 13.592 49.5504 15.32C50.4464 17.016 50.8944 18.984 50.8944 21.224L46.1424 19.88ZM72.719 35.48C70.383 35.48 68.447 34.984 66.911 33.992C65.407 32.968 64.287 31.512 63.551 29.624C62.815 27.704 62.447 25.4 62.447 22.712L62.207 22.664C62.207 20.04 62.591 17.768 63.359 15.848C64.127 13.928 65.295 12.456 66.863 11.432C68.431 10.408 70.383 9.896 72.719 9.896C74.927 9.896 76.879 10.408 78.575 11.432C80.271 12.424 81.583 13.88 82.511 15.8C83.471 17.688 83.951 19.992 83.951 22.712C83.951 25.4 83.471 27.704 82.511 29.624C81.583 31.544 80.271 33 78.575 33.992C76.879 34.984 74.927 35.48 72.719 35.48ZM71.087 32.36C72.655 32.36 73.999 31.992 75.119 31.256C76.271 30.488 77.167 29.384 77.807 27.944C78.447 26.504 78.767 24.76 78.767 22.712C78.767 20.632 78.447 18.872 77.807 17.432C77.167 15.992 76.271 14.904 75.119 14.168C73.999 13.4 72.655 13.016 71.087 13.016C69.583 13.016 68.239 13.4 67.055 14.168C65.903 14.904 64.991 15.992 64.319 17.432C63.679 18.872 63.359 20.632 63.359 22.712C63.359 24.76 63.679 26.504 64.319 27.944C64.991 29.384 65.903 30.488 67.055 31.256C68.239 31.992 69.583 32.36 71.087 32.36ZM54.575 44.12V41.624H58.751V12.872H54.863V10.376H63.215V18.68L62.783 22.664L63.599 27.752V41.624H68.879V44.12H54.575ZM87.767 35V32.504H91.991V3.368H88.151V0.871999H96.839V32.504H100.631V35H87.767Z" fill="url(#paint0_linear_1453_180)"/>
<path d="M115.76 35.48C113.584 35.48 111.648 34.984 109.952 33.992C108.256 33 106.928 31.544 105.968 29.624C105.04 27.704 104.576 25.4 104.576 22.712C104.576 19.992 105.056 17.688 106.016 15.8C106.976 13.88 108.288 12.424 109.952 11.432C111.648 10.408 113.6 9.896 115.808 9.896C118.144 9.896 120.096 10.424 121.664 11.48C123.232 12.504 124.4 13.976 125.168 15.896C125.968 17.784 126.368 20.04 126.368 22.664L126.08 22.76C126.08 25.384 125.712 27.656 124.976 29.576C124.24 31.496 123.104 32.968 121.568 33.992C120.064 34.984 118.128 35.48 115.76 35.48ZM117.392 32.36C118.928 32.36 120.272 31.992 121.424 31.256C122.608 30.488 123.52 29.384 124.16 27.944C124.832 26.504 125.168 24.76 125.168 22.712C125.168 20.632 124.832 18.872 124.16 17.432C123.52 15.992 122.608 14.904 121.424 14.168C120.272 13.4 118.928 13.016 117.392 13.016C115.856 13.016 114.512 13.4 113.36 14.168C112.208 14.904 111.312 15.992 110.672 17.432C110.064 18.872 109.76 20.632 109.76 22.712C109.76 24.76 110.064 26.504 110.672 27.944C111.312 29.384 112.208 30.488 113.36 31.256C114.512 31.992 115.856 32.36 117.392 32.36ZM119.648 44.12V41.624H124.88V27.704L125.648 22.664L125.264 18.68V10.424H129.776V41.624H133.568V44.12H119.648ZM147.341 35.432C145.709 35.432 144.269 35.16 143.021 34.616C141.805 34.04 140.829 33.144 140.093 31.928C139.389 30.712 139.037 29.144 139.037 27.224V12.92H135.437V10.424H143.837V27.128C143.837 28.888 144.301 30.168 145.229 30.968C146.189 31.736 147.469 32.12 149.069 32.12C150.221 32.12 151.309 31.864 152.333 31.352C153.357 30.808 154.173 29.96 154.781 28.808C155.421 27.624 155.741 26.136 155.741 24.344L156.845 24.296C156.845 26.824 156.477 28.92 155.741 30.584C155.037 32.216 153.981 33.432 152.573 34.232C151.197 35.032 149.453 35.432 147.341 35.432ZM156.269 35V26.552L155.741 26.648V12.92H151.709V10.424H160.589V32.504H164.381V35H156.269ZM167.461 35V32.504H171.733V12.92H167.845V10.424H176.581V32.504H180.421V35H167.461ZM173.893 7.064C172.965 7.064 172.197 6.792 171.589 6.248C170.981 5.672 170.677 4.92 170.677 3.992C170.677 3.064 170.965 2.344 171.541 1.832C172.149 1.288 172.933 1.016 173.893 1.016C174.853 1.016 175.621 1.288 176.197 1.832C176.805 2.344 177.109 3.08 177.109 4.04C177.109 4.936 176.805 5.672 176.197 6.248C175.621 6.792 174.853 7.064 173.893 7.064ZM196.55 35.576C194.15 35.576 192.006 35.08 190.118 34.088C188.23 33.096 186.758 31.64 185.702 29.72C184.646 27.8 184.118 25.448 184.118 22.664C184.118 19.912 184.662 17.592 185.75 15.704C186.838 13.816 188.342 12.376 190.262 11.384C192.214 10.392 194.438 9.896 196.934 9.896L197.606 12.44C195.846 12.44 194.31 12.84 192.998 13.64C191.718 14.408 190.726 15.512 190.022 16.952C189.318 18.36 188.966 20.072 188.966 22.088C188.966 24.04 189.318 25.752 190.022 27.224C190.726 28.664 191.702 29.784 192.95 30.584C194.23 31.384 195.734 31.784 197.462 31.784C198.646 31.784 199.67 31.608 200.534 31.256C201.43 30.872 202.166 30.392 202.742 29.816C203.35 29.24 203.814 28.616 204.134 27.944C204.454 27.24 204.646 26.568 204.71 25.928H207.59C207.558 27.112 207.302 28.28 206.822 29.432C206.342 30.584 205.638 31.624 204.71 32.552C203.814 33.48 202.678 34.216 201.302 34.76C199.926 35.304 198.342 35.576 196.55 35.576ZM203.99 20.168C203.126 20.168 202.422 19.944 201.878 19.496C201.366 19.016 201.11 18.424 201.11 17.72C201.11 16.888 201.446 16.264 202.118 15.848C202.822 15.432 203.686 15.224 204.71 15.224L204.566 16.952C204.342 16.184 203.942 15.464 203.366 14.792C202.822 14.088 202.086 13.528 201.158 13.112C200.23 12.664 199.046 12.44 197.606 12.44L196.934 9.896C199.142 9.896 200.998 10.232 202.502 10.904C204.038 11.576 205.222 12.44 206.054 13.496C206.886 14.52 207.302 15.64 207.302 16.856C207.302 17.88 206.998 18.696 206.39 19.304C205.782 19.88 204.982 20.168 203.99 20.168ZM211.236 35V32.504H215.46V3.368H211.62V0.871999H220.308V32.504H223.668V35H211.236ZM228.132 35V32.504H231.876L223.38 22.184L226.5 19.256L237.396 32.504H239.988V35H228.132ZM219.972 27.08L218.1 24.968L231.876 12.92H227.028V10.424H238.98V12.92H236.34L219.972 27.08Z" fill="white"/>
<defs>
<linearGradient id="paint0_linear_1453_180" x1="-1" y1="19" x2="242" y2="19" gradientUnits="userSpaceOnUse">
<stop offset="0.0946502" stop-color="#9C64BF"/>
<stop offset="0.226337" stop-color="#E0C174"/>
<stop offset="0.497942" stop-color="#FB7035"/>
</linearGradient>
</defs>
</svg>
