<svg width="161" height="42" viewBox="0 0 161 42" fill="none" xmlns="http://www.w3.org/2000/svg">
<path d="M0.251465 33V7.57227H5.2085V10.7393C6.06527 9.3929 7.35042 8.42904 9.06396 7.84766C9.85954 7.57227 10.6398 7.43457 11.4048 7.43457H12.5981L11.4507 12.2539C9.64535 12.2845 8.0695 13.1566 6.72314 14.8701C5.71338 16.1859 5.2085 17.5475 5.2085 18.9551V33H0.251465ZM14.939 26.0693V14.4111C15.0002 12.9118 15.6886 11.4583 17.0044 10.0508C18.6261 8.42904 20.5845 7.60286 22.8794 7.57227V12.1621C21.686 12.1621 20.7834 12.6976 20.1714 13.7686C19.9572 14.1357 19.8501 14.4723 19.8501 14.7783V17.5322H28.5708V14.8242C28.5708 13.5391 27.867 12.6976 26.4595 12.2998C26.0617 12.1774 25.6639 12.1162 25.2661 12.1162V7.57227C27.4386 7.57227 29.3664 8.32194 31.0493 9.82129C32.4569 11.1676 33.1759 12.6823 33.2065 14.3652V22.2598H19.8501V26.0693C19.8501 26.8649 20.2938 27.5228 21.1812 28.043C21.7319 28.349 22.3286 28.502 22.9712 28.502V33C20.1255 33 17.8765 31.8525 16.2241 29.5576C15.3674 28.3031 14.939 27.1403 14.939 26.0693ZM25.2661 33V28.4561C27.0409 28.4561 28.2648 27.7064 28.938 26.207C29.0298 25.9928 29.1063 25.7939 29.1675 25.6104L33.2524 27.0791C32.7017 29.1598 31.4624 30.7663 29.5347 31.8984C28.2189 32.6328 26.7961 33 25.2661 33ZM44.2681 33V28.2725H46.8384C48.2765 28.2725 49.2251 27.7064 49.6841 26.5742C49.7759 26.36 49.8218 26.1611 49.8218 25.9775V14.5947C49.8218 13.9827 49.4699 13.432 48.7661 12.9424C48.1847 12.514 47.4963 12.2998 46.7007 12.2998H44.1763V7.57227H46.7007C49.6076 7.57227 51.8566 8.75033 53.4478 11.1064C54.2433 12.2998 54.6411 13.432 54.6411 14.5029V26.0693C54.6411 27.5381 53.9985 28.9915 52.7134 30.4297C51.1528 32.1126 49.1945 32.9694 46.8384 33H44.2681ZM36.8325 41.9043V7.57227H41.9272V41.9043H36.8325ZM58.4966 33V0.366211H63.729V33H58.4966Z" fill="#F97F2F"/>
<path d="M75.2495 33C72.3732 33 70.1701 31.8219 68.6401 29.4658C67.8446 28.2725 67.4468 27.1403 67.4468 26.0693V14.5029C67.4468 13.0342 68.0741 11.5807 69.3286 10.1426C70.8892 8.45964 72.8628 7.60286 75.2495 7.57227H77.8198V12.2998H75.2495C73.7808 12.2998 72.8322 12.8812 72.4038 14.0439C72.312 14.2581 72.2661 14.4417 72.2661 14.5947V25.9775C72.2661 26.7119 72.6486 27.3239 73.4136 27.8135C73.9338 28.1195 74.5457 28.2725 75.2495 28.2725H77.728V33H75.2495ZM80.0229 41.9043V7.57227H85.1636V41.9043H80.0229ZM88.7437 26.2529V7.57227H93.7007V25.7021C93.7007 26.6813 94.1903 27.431 95.1694 27.9512C95.6896 28.2266 96.271 28.3643 96.9136 28.3643V33.2295C93.9455 33.2295 91.6353 32.0667 89.9829 29.7412C89.1567 28.5479 88.7437 27.3851 88.7437 26.2529ZM98.9331 33.2295V28.3643C100.463 28.3643 101.473 27.7676 101.962 26.5742C102.085 26.2682 102.146 25.9775 102.146 25.7021V7.57227H107.103V26.2529C107.103 27.6911 106.46 29.1139 105.175 30.5215C103.492 32.2962 101.412 33.1989 98.9331 33.2295ZM111.05 4.03809C111.05 2.90592 111.555 2.09505 112.565 1.60547C112.963 1.42188 113.361 1.33008 113.758 1.33008C114.921 1.33008 115.747 1.83496 116.237 2.84473C116.42 3.24251 116.512 3.6403 116.512 4.03809C116.512 5.13965 115.992 5.93522 114.952 6.4248C114.554 6.6084 114.156 6.7002 113.758 6.7002C112.657 6.7002 111.846 6.21061 111.326 5.23145C111.142 4.86426 111.05 4.46647 111.05 4.03809ZM111.372 33V8.53613H116.283V33H111.372ZM120.414 26.0693V14.457C120.444 13.3861 120.827 12.2845 121.561 11.1523C123.091 8.76562 125.355 7.57227 128.354 7.57227V12.208C127.681 12.208 127.084 12.3457 126.564 12.6211C125.677 13.0801 125.233 13.7227 125.233 14.5488V26.0693C125.233 26.2835 125.279 26.4977 125.371 26.7119C125.768 27.7829 126.763 28.3184 128.354 28.3184V33C125.845 33 123.825 32.1738 122.295 30.5215C121.041 29.1445 120.414 27.6605 120.414 26.0693ZM130.419 12.2539V7.57227C132.072 7.57227 133.571 8.07715 134.917 9.08691C136.753 10.5251 137.671 12.3763 137.671 14.6406L133.173 16.3389V15.0537C133.173 14.8089 133.143 14.5641 133.082 14.3193C132.776 12.9424 131.888 12.2539 130.419 12.2539ZM130.419 33.0459V28.3643C132.47 28.3337 133.571 27.3698 133.724 25.4727V24.2334L138.222 25.9316C138.222 27.6452 137.534 29.2057 136.157 30.6133C134.504 32.2962 132.592 33.1071 130.419 33.0459ZM141.16 33V0.366211H146.208V33H141.16ZM147.448 20.1943L155.113 7.57227H160.712L152.91 20.1943L160.758 33H155.205L147.448 20.1943Z" fill="black"/>
</svg>
